# xmcd CD database file
#
# Track frame offsets:
#	150
#	24099
#	43510
#	64655
#	94916
#	113638
#	133574
#	151202
#	170063
#	200563
#	219680
#	231909
#	248558
#	268277
#	285729
#
# Disc length: 4047 seconds
#
# Revision: 0
# Processed by: cddbd v1.4PL0 Copyright (c) Steve Scherf et al.
# Submitted via: NeoAudio 1.5.7
#
DISCID=d50fcd0f
DTITLE=Oro Sólido - Exitos
DYEAR=1900
DGENRE=Merengue
TTITLE0=El Baile del Beeper (Remix)
TTITLE1=La Cuca
TTITLE2=Abusadora
TTITLE3=Una Nalgadita
TTITLE4=La Vaca
TTITLE5=La Tanga
TTITLE6=Chupa tu Paleta
TTITLE7=Cumbia Picara
TTITLE8=Las Mujeres
TTITLE9=La Tortillera
TTITLE10=Mama Mambo
TTITLE11=La Viagra
TTITLE12=El Vacilón
TTITLE13=Está Caché
TTITLE14=Mujeres, Dinero
EXTD=
EXTT0=
EXTT1=
EXTT2=
EXTT3=
EXTT4=
EXTT5=
EXTT6=
EXTT7=
EXTT8=
EXTT9=
EXTT10=
EXTT11=
EXTT12=
EXTT13=
EXTT14=
PLAYORDER=
